<svg t="1594913902198" class="icon" viewBox="0 0 1024 1024" version="1.1" xmlns="http://www.w3.org/2000/svg" p-id="6146" width="200" height="200"><path d="M475.397511 475.467497V256.052496c0-20.18862 16.368881-36.5675 36.5675-36.5675s36.5675 16.368881 36.567501 36.5675V475.467497h219.415c20.18862 0 36.5675 16.368881 36.567501 36.567501s-16.368881 36.5675-36.567501 36.5675H548.532512v219.415001c0 20.18862-16.368881 36.5675-36.567501 36.5675-20.18862 0-36.5675-16.368881-36.5675-36.5675V548.602498H255.98251c-20.028631-0.389973-36.177527-16.52887-36.5675-36.5675 0-20.18862 16.368881-36.5675 36.5675-36.567501H475.397511zM511.965011 0.069995c282.750671 0 511.965002 229.214331 511.965003 511.965003s-229.214331 511.965002-511.965003 511.965002-511.965002-229.214331-511.965002-511.965002 229.214331-511.965002 511.965002-511.965003z m0 950.795004c242.363432 0 438.830002-196.46657 438.830002-438.830001 0-242.333434-196.486568-438.830002-438.830002-438.830002-242.333434 0-438.830002 196.486568-438.830002 438.830002s196.486568 438.830002 438.830002 438.830001z m0 0" fill="#d7dae0" p-id="6147"></path></svg>