<svg t="1595260143176" class="icon" viewBox="0 0 1024 1024" version="1.1" xmlns="http://www.w3.org/2000/svg" p-id="1794" width="200" height="200"><path d="M545.856 640h-1.216c-17.216 0-33.12-13.12-44.832-25.952l-36.992-43.392a33.664 33.664 0 0 1 2.112-46.56c13.088-11.936 33.312-11.648 45.216 1.408l36.992 40.256 173.472-179.136-49.888-54.144-72 74.144a32 32 0 1 1-45.504-45.056l73.44-74.176c12.128-12.256 28.992-18.336 45.408-18.752a62.464 62.464 0 0 1 45.056 19.68l49.888 52.512a65.696 65.696 0 0 1-0.736 90.464l-176 184.448c-12 12.128-27.68 24.256-44.416 24.256z m-193.888 114.592a64.32 64.32 0 0 1-45.088-18.208l-50.432-49.216a63.36 63.36 0 0 1-19.2-45.056 63.36 63.36 0 0 1 18.464-45.44l179.04-187.104c12.032-12.128 28.096-25.568 45.216-25.568h0.16c17.088 0 33.12 13.344 45.152 25.376l41.312 44.672a34.016 34.016 0 0 1 0 46.912c-12.512 12.512-32.736 13.344-45.248 0.832l-41.312-40.896-178.848 180.608 50.4 48.96 74.944-73.344a32 32 0 0 1 45.056 45.536l-74.176 73.408a64.64 64.64 0 0 1-45.44 18.528zM512 960C264.96 960 64 759.04 64 512S264.96 64 512 64s448 200.96 448 448-200.96 448-448 448z m0-832C300.256 128 128 300.256 128 512s172.256 384 384 384 384-172.256 384-384S723.744 128 512 128z" p-id="1795" fill="#d7dae0"></path></svg>